<?xml version="1.0" standalone="no"?>
<!DOCTYPE svg PUBLIC "-//W3C//DTD SVG 1.1//EN" "http://www.w3.org/Graphics/SVG/1.1/DTD/svg11.dtd">
<svg xmlns="http://www.w3.org/2000/svg">
<metadata>Copyright (C) 2018 by original authors @ fontello.com</metadata>
<defs>
<font id="fontello" horiz-adv-x="1000" >
<font-face font-family="fontello" font-weight="400" font-stretch="normal" units-per-em="1000" ascent="850" descent="-150" />
<missing-glyph horiz-adv-x="1000" />
<glyph glyph-name="align-center" unicode="&#xe800;" d="M1892 33h-1834c-33 0-58-25-58-58 0-33 25-58 58-58h1825c34 0 59 25 59 58 8 33-17 58-50 58z m-392 409h-967c-16 0-33-25-33-59 0-33 17-58 33-58h967c17 0 33 25 33 58 0 34-16 59-33 59z m392 408h-1834c-33 0-58-25-58-58 0-34 25-59 58-59h1825c34 0 59 25 59 59 8 33-17 58-50 58z" horiz-adv-x="2000" />

<glyph glyph-name="align-justify" unicode="&#xe801;" d="M1892 33h-1834c-33 0-58-25-58-58 0-33 25-58 58-58h1825c34 0 59 25 59 58 8 33-17 58-50 58z m0 409h-1834c-33 0-58-25-58-59 0-33 25-58 58-58h1825c34 0 59 25 59 58 8 34-17 59-50 59z m0 408h-1834c-33 0-58-25-58-58 0-34 25-59 58-59h1825c34 0 59 25 59 59 8 33-17 58-50 58z" horiz-adv-x="2000" />

<glyph glyph-name="align-left" unicode="&#xe802;" d="M1000 33h-967c-16 0-33-25-33-58 0-33 17-58 33-58h967c17 0 33 25 33 58 0 33-16 58-33 58z m892 409h-1834c-33 0-58-25-58-59 0-33 25-58 58-58h1825c34 0 59 25 59 58 8 34-17 59-50 59z m0 408h-1834c-33 0-58-25-58-58 0-34 25-59 58-59h1825c34 0 59 25 59 59 8 33-17 58-50 58z" horiz-adv-x="2000" />

<glyph glyph-name="align-right" unicode="&#xe803;" d="M1892 33h-1834c-33 0-58-25-58-58 0-33 25-58 58-58h1825c34 0 59 25 59 58 8 33-17 58-50 58z m25 409h-967c-17 0-33-25-33-59 0-33 16-58 33-58h967c16 0 33 25 33 58 0 34-17 59-33 59z m-25 408h-1834c-33 0-58-25-58-58 0-34 25-59 58-59h1825c34 0 59 25 59 59 8 33-17 58-50 58z" horiz-adv-x="2000" />

<glyph glyph-name="arrow-down" unicode="&#xe804;" d="M160 850h1500c140 0 200-160 100-240l-760-720c-60-60-140-60-200 0l-760 720c-100 80-20 240 120 240z" horiz-adv-x="1800" />

<glyph glyph-name="arrow-regular" unicode="&#xe805;" d="M91-105c-9 0-27 9-36 19-19 18-19 45 0 63l418 373-409 373c-18 18-18 45 0 63s45 19 63 0l455-409c0-9 9-18 9-27 0-9-9-27-18-36l-455-410c-9-9-18-9-27-9z" horiz-adv-x="636" />

<glyph glyph-name="arrow-right" unicode="&#xe806;" d="M0-61v822c0 78 89 111 133 56l400-411c34-34 34-89 0-123l-400-411c-44-55-133-11-133 67z" horiz-adv-x="556" />

<glyph glyph-name="close" unicode="&#xe807;" d="M500-150c-133 0-258 50-354 146-96 96-146 221-146 354 0 133 50 258 146 354 96 96 221 146 354 146 133 0 258-50 354-146s146-221 146-354c0-133-50-258-146-354-96-96-221-146-354-146l0 0z m0 62c117 0 225 46 308 130 84 83 130 191 130 308 0 117-46 225-130 308-83 84-191 130-308 130s-225-46-308-130c-84-83-129-191-129-308 0-117 45-225 129-308 83-84 191-130 308-130l0 0z m225 213c-4-4-12-8-21-8s-16 4-21 8l-183 179-179-179c-4-4-13-8-21-8-8 0-17 4-21 8-12 13-12 33 0 46l179 179-183 179c-12 13-12 34 0 46s33 13 46 0l179-179 179 179c13 13 34 13 46 0 13-12 13-33 0-46l-179-179 179-179c13-13 13-33 0-46l0 0z" horiz-adv-x="1000" />

<glyph glyph-name="components" unicode="&#xe808;" d="M1130 850h-1093c-20 0-37-17-37-37v-926c0-20 17-37 37-37h1093c20 0 37 17 37 37v926c0 20-17 37-37 37z m-1057-927v630h1020v-630h-1020z m910 557h-273c-20 0-37-17-37-37v-296c0-20 17-37 37-37h273c20 0 37 17 37 37v296c0 20-17 37-37 37z m-416-297h-384c-20 0-36-16-36-36 0-20 16-37 36-37h384c20 0 36 17 36 37-3 20-16 36-36 36z m380 0h-200v224h200v-224z m-380 147h-384c-20 0-36-17-36-37 0-20 16-36 36-36h384c20 0 36 16 36 36-3 20-16 37-36 37z m0 150h-384c-20 0-36-17-36-37 0-20 16-36 36-36h384c20 0 36 16 36 36-3 20-16 37-36 37z m526 297v-147h-1020v147h1020z m-693-114c10 0 20 4 27 10 6 10 10 20 10 30 0 10-4 20-10 27-14 13-37 13-50 0-7-7-10-17-10-27 0-10 3-20 10-26 6-7 13-14 23-14z m-217 0c10 0 20 4 27 10 3 10 10 20 10 30 0 10-3 20-10 27-13 13-37 13-50 0-10-10-13-17-13-27 0-10 3-20 10-26 6-7 16-14 26-14z m110 0c10 0 20 4 27 10 3 10 7 20 7 30 0 10-4 20-10 27-14 13-37 13-50-3-7-7-10-17-10-24 0-10 3-20 10-26 6-7 16-14 26-14z" horiz-adv-x="1167" />

<glyph glyph-name="css3" unicode="&#xe809;" d="M442-131c0 0-3 0-3 0l-343 92c-7 4-15 8-15 16l-62 835c0 3 0 11 4 15 4 0 12 4 16 4h807c4 0 12-4 16-8 3-4 3-8 3-15l-61-831c0-8-8-16-15-16l-343-92c0 0-4 0-4 0z m-323 127l323-88 323 88 58 796h-765l61-796z m323 89c-3 0-3 0-7 0l-181 61c-8 4-12 8-12 16l-11 92c0 8 8 19 19 19 12 0 19-8 19-15l8-77 165-54 170 54 11 181h-384c-8 0-16 7-20 15-4 8 4 19 12 23l350 181h-358c-11 0-19 8-19 19s8 19 19 19h435c7 0 15-7 19-15 4-8-4-19-12-23l-350-181h324c3 0 11-4 15-8 4-3 4-7 4-15l-16-215c0-8-3-16-11-16l-185-61c0 0 0 0-4 0z" horiz-adv-x="885" />

<glyph glyph-name="customize" unicode="&#xe80a;" d="M493-150c35 0 62 28 62 62v876c0 34-27 62-62 62h-183c-34 0-62-28-62-62v-876c0-34 28-62 62-62h183z m-400 17c17 0 31 11 42 28l34 69c10 20 17 52 17 72v721c0 34-27 62-62 62h-62c-34 0-62-28-62-62v-717c0-21 7-52 17-73l35-69c7-20 24-31 41-31z m217 921h187v-93h-94c-17 0-31-14-31-31 0-17 14-31 31-31h94v-93h-14c-21-4-35-18-35-35 0-17 14-31 31-31h14v-93h-93c-17 0-31-14-31-31 0-17 14-31 31-31h93v-93h-14c-17 0-31-14-31-31 0-17 14-31 31-31h14v-93h-93c-17 0-31-14-31-31 0-18 14-31 31-31h93v-94h-183v873z m431-845h-62v721c0 14 4 34 11 45l20 41 21-41c7-11 10-35 10-45v-721z m-627 48l-21-41-21 41c-6 11-10 35-10 45v566h62v-562c0-14-7-38-10-49z m672 745l-34 69c-11 17-24 28-42 28s-31-11-41-28l-34-69c-11-20-18-51-18-72v-717c0-35 28-63 62-63h62c35 0 62 28 62 63h32c34 0 62 27 62 62v124c0 17-14 31-31 31-18 0-31-14-31-31v-124h-32v655c0 21-6 52-17 72z m-662 21v-93h-62v93h62z" horiz-adv-x="897" />

<glyph glyph-name="drag-and-drop-placeholder" unicode="&#xe80b;" d="M941 481h-219c-12 0-22-9-22-21 0-11 10-20 22-20h219c36 0 65-28 65-62v-410c0-34-29-62-65-62h-437c-36 0-66 28-66 62v164c0 12-9 21-21 21-13 0-22-9-22-21v-164c0-57 49-103 109-103h437c60 0 109 46 109 103v410c0 57-49 103-109 103z m-219-12h219c54 0 97-41 97-91v-410c0-49-43-91-97-91h-437c-54 0-97 42-97 91v164c0 4 3 9 10 9 6 0 9-5 9-9v-164c0-41 36-73 78-73h437c42 0 77 32 77 73v410c0 42-35 74-77 74h-219c-6 0-10 4-10 8 0 4 4 9 10 9z m-393-193h-22c-12 0-22-9-22-21 0-11 10-20 22-20h22c12 0 22 9 22 20 0 12-10 21-22 21z m-22-12h22c6 0 10-5 10-9 0-4-4-8-10-8h-22c-6 0-10 4-10 8 0 4 4 9 10 9z m-177 586h-19c-11 0-21-1-31-4-11-3-18-15-15-26 3-8 12-14 21-14 2 0 4 0 6 1 6 1 12 2 19 2h19c12 0 22 9 22 21 0 11-10 20-22 20z m-65-30c3-8 12-14 21-14 2 0 4 0 6 1 6 1 12 2 19 2h19c12 0 22 9 22 21 0 11-10 20-22 20h-19c-11 0-21-1-31-4m-15-26l12 4c0 0 0 0 0 0m-12-4l12 4c0 0 0 0 0 0m-12-4c-3 11 4 23 15 26m-3-22c1-3 4-6 9-6 1 0 2 0 3 0l0 0 0 0c7 2 14 3 22 3h19c6 0 10 4 10 9 0 4-4 8-10 8h-19c-10 0-19-1-28-4m-6-10c-2 4 1 9 6 10m0 0c0 0 0 0 0 0l-3 12m3-12c0 0 0 0 0 0l-3 12m-35-491v42c0 11-10 20-22 20-12 0-21-9-21-20v-42c0-11 9-20 21-20 12 0 22 9 22 20z m-12 42v-42c0-4-3-8-10-8-6 0-10 4-10 8v42c0 4 4 9 10 9 7 0 10-5 10-9z m-10 62c12 0 22 10 22 21v41c0 12-10 21-22 21-12 0-21-9-21-21v-41c0-11 9-21 21-21z m10 21c0-4-3-9-10-9-6 0-10 5-10 9v41c0 4 4 9 10 9 7 0 10-5 10-9v-41z m-10 228c12 0 22 9 22 21v19c0 5 1 11 3 16 3 11-4 22-15 26-12 3-24-4-27-15-3-9-4-18-4-27v-19c0-12 9-21 21-21z m13 60l0 0c1 4-1 9-6 10l-1 0 0 0c-5 2-11-2-12-6l19-4z m0 0c-2-7-3-14-3-20v-19c0-4-3-9-10-9m13 48l-13-48m0 0c-6 0-10 5-10 9v19c0 8 2 16 4 24l6-52z m0-136c12 0 22 9 22 20v42c0 11-10 20-22 20-12 0-21-9-21-20v-42c0-11 9-20 21-20z m10 20c0-4-3-8-10-8-6 0-10 4-10 8v42c0 4 4 8 10 8 7 0 10-4 10-8v-42z m60-326c-11 3-21 8-28 16-9 8-23 8-31 0-9-8-9-21 0-29 13-13 29-22 47-26 2-1 4-1 6-1 9 0 18 6 21 15 3 11-4 22-15 25z m-3-11l0 0c5-2 8-7 6-11l0 0c-1-3-4-6-9-6-1 0-2 0-3 0-16 4-30 12-42 23l0 0 0 0c-4 4-4 9 0 12 4 4 11 4 14 0l1 0c9-9 20-15 33-18z m541 483c2 0 4 0 6 1 12 3 19 15 15 25-5 17-15 32-28 44-8 8-22 8-31 0-8-8-8-21 1-29 7-7 13-16 16-26 3-9 12-15 21-15z m3 12l0 0c6 2 8 7 7 11l0 0c-5 14-13 28-25 39l18-50z m0 0l0 0m0 0l0 0m0 0c-1 0-2 0-3 0-4 0-8 3-9 6-4 12-11 23-20 32l0 0 0 0c-4 3-4 8 0 12l0 0m32-50l-32 50m-8-21c-9 8-9 21-1 29 9 8 23 8 31 0 13-12 23-27 28-44l-58 15z m0 0c7-7 13-16 16-26l-16 26z m8 21l0 0m0 0l0 0m0 0c4 3 10 3 14 0l-14 0z m-75 38h-44c-12 0-22-9-22-20 0-12 10-21 22-21h44c12 0 22 9 22 21 0 11-10 20-22 20z m-44-12h44c7 0 10-4 10-8 0-5-3-9-10-9h-44c-6 0-10 4-10 9 0 4 4 8 10 8z m-264-562h-44c-12 0-22-9-22-21 0-11 10-20 22-20h44c12 0 22 9 22 20 0 12-10 21-22 21z m-44-12h44c6 0 10-5 10-9 0-4-4-8-10-8h-44c-6 0-10 4-10 8 0 4 4 9 10 9z m460 445c-12 0-22-10-22-21v-41c0-12 10-21 22-21 12 0 22 9 22 21v41c0 11-10 21-22 21z m-10-21c0 4 4 9 10 9 6 0 10-5 10-9v-41c0-5-4-9-10-9-6 0-10 4-10 9v41z m-230 162h-44c-12 0-22-9-22-20 0-12 10-21 22-21h44c12 0 22 9 22 21 0 11-10 20-22 20z m-44-12h44c6 0 10-4 10-8 0-4-4-9-10-9h-44c-6 0-10 4-10 9 0 4 4 8 10 8z m-88 12h-45c-12 0-21-9-21-20 0-12 9-21 21-21h45c12 0 21 9 21 21 0 11-9 20-21 20z m-45-12h45c6 0 9-4 9-8 0-5-3-9-9-9h-45c-6 0-10 4-10 9 0 4 4 8 10 8z m417-255c-12 0-22-9-22-20v-21c0-11 10-20 22-20 12 0 22 9 22 20v21c0 11-10 20-22 20z m-10-20c0 4 4 9 10 9 6 0 10-5 10-9v-21c0-4-4-8-10-8-6 0-10 4-10 8v21z m93-70l-68 64c-26 25-69 25-96 0-8-8-14-16-17-26-24 8-52 2-70-15-10-9-17-21-19-33-21 3-43-4-58-18-14-14-21-32-20-50-14-2-28-8-39-18-12-12-20-28-20-46 0-17 8-33 20-45l20-18v-74c0-56 49-102 109-102h90c131 0 238 100 238 223 0 60-25 116-70 158z m-168-340h-90c-36 0-65 27-65 61v33l50-47c8-8 22-8 31 0 4 4 6 9 6 14 0 5-2 11-6 15l-114 106c-4 5-7 10-7 16 0 7 3 12 7 17 10 8 26 8 35 0l48-45c8-8 22-8 31 0 4 4 6 9 6 14 0 6-2 11-6 15l-55 51c-10 9-10 24 0 33 9 8 25 8 35 0l32-31c9-8 23-8 31 0 5 4 7 9 7 14 0 6-2 11-7 15l-21 20c-10 9-10 24 0 33 9 9 25 9 34 0l22-21c8-8 22-8 31 0 4 4 6 10 6 15 0 5-2 10-6 14-5 5-7 10-7 17 0 6 2 12 7 16 9 9 25 9 35 0l67-64c37-34 57-80 57-129 0-100-87-182-194-182z m-5 363l-11 4c-20 6-44 1-59-13-8-7-13-17-15-27l-3-10-11 1c-17 2-35-3-48-15l147 60z m0 0l4 11c2 8 7 15 13 21l-8 9m-9-41l9 41m0 0l8-9c22 21 58 21 80 0l68-63c0 0 0 0 0 0 43-40 66-93 66-150 0-116-101-211-226-211h-90c-54 0-97 41-97 90 0 0 0 0 0 0v74 5l-4 3-19 19 0 0c-11 10-17 23-17 36 0 14 6 27 17 37l0 0c8 8 20 14 32 15l11 2m171 152l-171-152m0 0l-1 11m1-11l-1 11m0 0c-1 14 4 29 16 40l-16-40z m203 79l-8-8c2-2 2-4 2-6 0-2 0-4-2-6-4-4-11-4-15 0l-22 21c0 0 0 0 0 0-14 13-37 13-51 0-14-14-14-37 0-50l22-21c2-2 3-4 3-6 0-2-1-4-3-6-4-3-10-3-14 0l-33 31c0 0 0 0 0 0-14 13-37 13-51 0-15-13-15-36 0-50l55-51c1-2 2-4 2-6 0-2-1-4-3-6-3-3-10-3-14 0l-48 45c-14 13-37 13-51 0-7-6-11-15-11-25 0-9 4-18 11-24 0 0 0-1 0-1l113-106c0 0 0 0 0 0 2-2 3-4 3-6 0-2-1-4-3-6-3-3-10-3-14 0l-50 47-20 19v-27-33c0-41 35-73 77-73h90c113 0 206 86 206 194 0 52-22 101-61 138l-67 64c-14 13-37 13-51 0-7-7-11-16-11-25 0-10 4-19 11-25l8 8z m0 0c-5 5-7 10-7 17 0 6 2 12 7 16l-31-62c8-8 22-8 31 0 4 4 6 10 6 15 0 5-2 10-6 14z" horiz-adv-x="1071" />

<glyph glyph-name="drag" unicode="&#xe80c;" d="M960 540l-277 273c-50 50-130 50-176 0-17-16-30-40-34-63-50 43-126 43-173-3-20-24-33-47-37-74-46 24-103 14-143-23-43-43-47-110-17-157-26-3-50-16-66-33-50-50-50-127 0-177l90-86v-97c0-137 113-247 250-247h273c80 0 157 30 217 87l96 97c70 66 107 156 107 253s-40 183-110 250z m-40-467l-97-96c-46-47-110-74-176-74h-274c-106 0-193 87-193 194v43l63-63c10-10 30-10 40 0 7 6 7 13 7 20 0 6-3 13-7 20l-206 203c-14 13-20 30-20 50s6 37 20 50c26 27 73 27 100 0l70-67c10-10 30-10 40 0 6 7 6 14 6 20 0 7-3 14-6 20l-124 124c-33 23-33 66-3 93 27 27 73 27 100 0l123-123c10-10 30-10 40 0 7 6 7 13 7 20 0 6-3 13-7 20l-83 80c-13 13-20 33-20 50 0 20 7 36 20 50 27 26 73 26 100 0l83-80c10-10 30-10 40 0 4 3 4 10 4 16 0 7 0 14-7 20l-13 14c-27 26-27 70 0 96 26 27 73 27 100 0l276-273c57-57 90-133 90-213s-33-157-93-214z" horiz-adv-x="1067" />

<glyph glyph-name="el-01" unicode="&#xe80d;" d="M1988-8h-1892c-54 0-96-30-96-71 0-42 42-71 96-71h1896c54 0 96 33 96 71-5 41-46 71-100 71z m0 429h-1892c-54 0-96-33-96-71 0-42 42-71 96-71h1896c50 0 91 29 91 71 0 38-41 71-95 71z m0 429h-1892c-54 0-96-33-96-71 0-41 42-71 96-71h1896c50 0 91 30 91 71 0 38-41 71-95 71z" horiz-adv-x="2083" />

<glyph glyph-name="el-02" unicode="&#xe80e;" d="M2100-8h-1354c-38 0-67-34-67-71 0-42 29-71 67-71h1354c38 0 67 33 67 71 0 41-29 71-67 71z m-2033-142h204c37 0 67 33 67 71 0 37-30 71-67 71h-204c-38 0-67-34-67-71 0-38 29-71 67-71z m2033 571h-1354c-38 0-67-33-67-71 0-42 29-71 67-71h1354c38 0 67 34 67 71 0 38-29 71-67 71z m-2033-142h204c37 0 67 34 67 71 0 38-30 71-67 71h-204c-38 0-67-33-67-71 0-42 29-71 67-71z m2033 571h-1354c-38 0-67-33-67-71 0-41 29-71 67-71h1354c38 0 67 34 67 71 0 38-29 71-67 71z m-2033-142h204c37 0 67 34 67 71 0 38-30 71-67 71h-204c-38 0-67-33-67-71 0-41 29-71 67-71z" horiz-adv-x="2167" />

<glyph glyph-name="elements" unicode="&#xe80f;" d="M38-150h1131c21 0 38 17 38 38v924c0 21-17 38-38 38h-1131c-21 0-38-17-38-38v-928c0-17 17-34 38-34z m38 72v631h1055v-631h-1055z m941 263h-827c-21 0-38-18-38-38 0-21 17-38 38-38h831c20 0 38 17 38 38-4 20-21 38-42 38z m0 148h-827c-21 0-38-17-38-38 0-21 17-38 38-38h831c20 0 38 17 38 38-4 21-21 38-42 38z m0 148h-827c-21 0-38-17-38-38 0-21 17-38 38-38h831c20 0 38 17 38 38-4 21-21 38-42 38z m114 297v-149h-1055v149h1055z m-828-114c11 0 21 3 28 10 7 7 10 17 10 28 0 10-3 20-10 27-17 14-41 14-55 0-7-7-10-17-10-27 0-11 3-21 10-28 7-7 17-10 27-10z m-113 0c10 0 20 3 27 10 7 7 11 17 11 28 0 10-4 20-11 27-14 14-38 14-51 0-11-7-14-17-14-27 0-11 3-21 10-28 7-7 17-10 28-10z m224 0c10 0 21 3 27 10 7 7 11 17 11 28s-4 20-11 27c-13 14-38 14-51 0-7-7-11-17-11-27 0-11 4-21 11-28 7-7 13-10 24-10z" horiz-adv-x="1207" />

<glyph glyph-name="hamburger" unicode="&#xe810;" d="" horiz-adv-x="1364" />

<glyph glyph-name="html" unicode="&#xe811;" d="M423-131c0 0-4 0-4 0l-327 92c-7 4-11 12-15 20l-58 831c0 3 0 11 4 15 4 0 12 4 16 4h769c4 0 11-4 15-8s4-8 4-15l-58-827c0-8-7-16-15-16l-327-92c0-4-4-4-4-4z m-308 127l308-88 308 88 58 796h-731l57-796z m308 89c-4 0-4 0-8 0l-173 61c-7 4-11 12-11 19l-8 89c0 11 8 19 16 19 11 0 19-8 19-15l7-77 154-54 158 54 12 181h-358c-12 0-19 7-19 19l-16 215c0 4 0 12 4 16 4 3 8 7 15 7h416c11 0 19-7 19-19s-8-19-19-19h-392l11-177h365c4 0 12-4 16-8s4-7 4-15l-12-216c0-7-4-15-11-15l-177-61c-8-4-8-4-12-4z" horiz-adv-x="846" />

<glyph glyph-name="icon-left-topc" unicode="&#xe812;" d="M800 850h-537c-129 0-232-103-232-231v-538c0-128 103-231 232-231h537c128 0 231 103 231 231v538c0 128-103 231-231 231z m-531-653h-63c-12 0-22 9-22 22 0 12 10 22 22 22h63c12 0 22-10 22-22 0-13-10-22-22-22z m0 131h-63c-9 0-18 10-18 22 0 13 9 22 21 22h63c12 0 22-9 22-22-3-12-13-22-25-22z m0 131h-63c-12 0-22 10-22 22 0 13 10 22 22 22h63c12 0 22-9 22-22 0-12-10-22-22-22z m556-262h-412c-13 0-22 9-22 22 0 12 9 22 22 22h412c13 0 22-10 22-22-3-13-13-22-22-22z m0 131h-412c-13 0-22 10-22 22 0 13 9 22 22 22h412c13 0 22-9 22-22-3-12-13-22-22-22z m0 131h-412c-13 0-22 10-22 22 0 13 9 22 22 22h412c13 0 22-9 22-22-3-12-13-22-22-22z" horiz-adv-x="1031" />

<glyph glyph-name="js" unicode="&#xe813;" d="M692-131h-653c-12 0-20 8-20 19v924c0 11 8 19 20 19h415c4 0 11-4 15-8l239-246c4-4 4-8 4-12v-677c0-11-8-19-20-19z m-634 39h615v650l-227 234h-388v-884z m634 638h-238c-12 0-19 8-19 19v247c0 11 7 19 19 19s19-8 19-19v-227h219c12 0 20-8 20-20s-8-19-20-19z m-238-400c-4 0-8 0-12 4-7 8-7 19-3 27l92 112-92 111c-8 8-8 19 3 27 8 8 20 8 27-4l104-123c8-8 8-19 0-23l-104-123c-4-4-7-8-15-8z m-177 0c-4 0-12 4-15 8l-104 123c-8 8-8 19 0 23l104 123c7 8 19 12 27 4 7-8 7-19 3-27l-92-111 92-112c8-8 8-19-3-27-4-4-8-4-12-4z" horiz-adv-x="731" />

<glyph glyph-name="log-out" unicode="&#xe814;" d="M362-35h-193c-15 0-30 8-38 16-8 7-16 23-16 38v662c0 15 8 31 16 38 8 8 23 16 38 16h185c23 0 38 15 38 38s-15 39-30 39h-193c-30 0-69-16-92-39s-38-61-38-92v-662c0-38 15-69 38-92s62-39 92-39h185c23 0 38 16 38 39s-15 38-30 38z m592 416l-239 231c-15 15-38 15-53 0s-16-39 0-54l169-169h-469c-23 0-39-16-39-39s16-38 39-38h469l-169-170c-16-15-16-38 0-53 7-8 15-8 30-8s23 0 31 8l239 238c0 0 7 8 7 15 0 23-7 31-15 39z" horiz-adv-x="1000" />

<glyph glyph-name="login_icon" unicode="&#xe815;" d="M553 271c-179 0-527-89-527-268v-137h1053v137c0 179-347 268-526 268z m0 105c131 0 237 106 237 237s-106 237-237 237-237-105-237-237 105-237 237-237z" horiz-adv-x="1105" />

<glyph glyph-name="password_icon" unicode="&#xe816;" d="M744 415v96c0 174-135 317-300 317-166 0-300-143-300-317v-96c-74-21-127-87-127-165v-204c0-96 79-174 174-174h505c95 0 174 78 174 174v204c0 78-53 144-126 165z m-296 322c117 0 213-100 213-222v-87h-426v87c0 122 95 222 213 222z m52-704h-87v204h87v-204z" horiz-adv-x="913" />

<glyph glyph-name="preview_desktop" unicode="&#xe817;" d="M1110 850h-1043c-19 0-34-14-34-38v-714c0-19 15-38 34-38h485v-143h-138c-19 0-33-15-33-38 0-15 14-29 33-29h348c19 0 33 14 33 38 0 19-14 38-33 38h-138v143h486c19 0 33 14 33 38v714c0 15-14 29-33 29z m-39-714h-966v643h971v-643z" horiz-adv-x="1143" />

<glyph glyph-name="preview_mobile" unicode="&#xe818;" d="M517 850h-488c-16 0-29-12-29-33v-938c0-17 13-29 29-29h484c16 0 29 12 29 33v934c4 21-9 33-25 33z m-34-938h-420v876h425v-876z m-195 126h-30c-16 0-29-13-29-34 0-17 13-33 29-33h30c16 0 29 12 29 33 0 21-13 34-29 34z m-121 625h212c17 0 29 12 29 33 0 17-12 29-29 29h-212c-17 0-29-12-29-33 0-17 12-29 29-29z" horiz-adv-x="583" />

<glyph glyph-name="revision" unicode="&#xe819;" d="M145-5c96-93 221-145 355-145 17 0 31 14 31 31 0 17-14 31-31 31-117 0-228 45-310 128-83 82-128 193-128 310 0 114 45 224 124 307v-86c0-18 14-31 31-31 18 0 31 13 31 31v186h-186c-17 0-31-14-31-31 0-17 14-31 31-31h76c-90-93-138-214-138-345 0-134 52-259 145-355z m324 824c0-17 14-31 31-31 117 0 228-45 310-128 83-82 128-193 128-310 0-114-45-224-124-307v86c0 18-14 31-31 31-17 0-31-13-31-31v-186h186c17 0 31 14 31 31 0 17-14 31-31 31h-76c90 93 138 214 138 345 0 135-52 259-145 355-96 93-220 145-355 145-17 0-31-14-31-31z" horiz-adv-x="1000" />

<glyph glyph-name="search_icon" unicode="&#xe81a;" d="M708 277c-12 12-31 12-43 0l-23-23-61 58c46 57 77 130 77 207 0 181-146 327-327 327-185 4-331-142-331-323 0-181 146-327 327-327 81 0 150 27 208 77l57-58-23-23c-11-11-11-30 0-42l281-281c8-8 15-8 23-8 8 0 16 4 23 8l93 92c11 12 11 31 0 43l-281 273z m-646 246c0 146 119 266 265 266 146 0 265-120 265-266 0-146-119-265-265-265-146 0-265 119-265 265z m815-596l-238 238 50 50 238-238-50-50z" horiz-adv-x="1000" />

<glyph glyph-name="settings" unicode="&#xe81b;" d="M763 306c-15 14-33 14-48 0l-26-26-52 52 119 114h51c134 0 200 82 200 234 0 11-7 22-14 29-11 8-23 8-34 0l-111-55-33 33 55 111c4 11 4 22 0 34-7 11-18 18-29 18-152 0-234-70-234-200v-52l-122-118-189 185 26 26c11 11 15 18 15 29-4 12-7 19-18 26l-167 100c-15 8-30 4-41-7l-33-33c-11-12-15-26-8-41l100-167c8-7 15-15 26-15 0 0 4 0 4 0 7 0 19 4 22 11l26 26 189-185-393-396c-3-4-7-7-7-11l-37-100c-4-11 0-26 7-34l34-33c7-7 18-11 26-11 3 0 7 0 11 0l100 33c4 0 11 4 15 8l396 392 52-51-26-26c-15-15-15-34 0-49l304-300c7-7 14-11 22-11 7 0 18 4 22 11l100 100c15 15 15 34 0 49l-300 300z m-556 363l-59 100 100-60-41-40z m-59-723l-74-26-4 4 26 74 567 563c7 8 11 15 11 22v67c0 56 15 115 111 130l-44-82c-8-11-4-29 7-37l67-67c11-11 26-11 37-7l85 41c-15-96-74-111-130-111h-66c-8 0-19-4-22-11l-571-560z m793-15l-256 252 52 52 256-252-52-52z" horiz-adv-x="1074" />

<glyph glyph-name="toast-success-bigger" unicode="&#xe81c;" d="M327-27c0 0 0 0 0 0 16 0 30 7 36 17l630 653c20 20 20 54 0 70-20 20-53 20-70 0l-593-616-240 286c-17 20-50 24-70 7-20-17-23-50-7-70l277-327c7-13 20-20 37-20z" horiz-adv-x="1000" />

<glyph glyph-name="toast-unsuccessful" unicode="&#xe81d;" d="M22-128c11-11 22-22 45-22s33 11 44 22l389 389 389-389c11-11 22-22 44-22s34 11 45 22c22 22 22 67 0 89l-378 389 378 389c22 22 22 67 0 89-22 33-67 33-89 0l-389-389-389 389c-22 22-67 22-89 0-22-22-22-67 0-89l389-389-389-389c-33-22-33-67 0-89z" horiz-adv-x="1000" />

<glyph glyph-name="validation-alert" unicode="&#xe81e;" d="M169-112c-23 0-46 8-69 16s-38 31-46 46c-15 23-15 46-15 69 0 23 7 46 15 70l408 661c0 0 0 0 0 0 15 23 30 39 46 46 38 23 92 23 131 0 23-15 38-31 53-46l408-661c15-24 15-47 15-70 0-23-7-46-15-69-15-23-31-39-46-46s-46-16-69-16h-816z m362 824l-408-662c-8-8-8-15-8-23 0-8 0-15 8-31 8-8 16-15 23-23 8-8 16-8 31-8h808c7 0 23 0 30 8 8 8 16 15 24 23 7 8 7 16 7 31 0 8 0 15-7 31l-416 654c0 7-8 7-15 15-16 8-39 8-54 0-15-8-23-8-23-15z m46-447c-23 0-38 16-38 39v185c0 23 15 38 38 38s38-15 38-38v-185c0-23-15-39-38-39z" horiz-adv-x="1154" />

<glyph glyph-name="warning" unicode="&#xe81f;" d="M500 850c-277 0-500-223-500-500s223-500 500-500c277 0 500 223 500 500s-223 500-500 500z m420-377h-170c-3 0-10 0-13-3-27 50-67 90-114 113 4 4 4 10 4 14v173c140-43 250-153 293-297z m-163-60h176c4-20 4-40 4-63s0-43-4-63h-173c3 20 7 40 7 63s-4 43-10 63z m-257-266c-113 0-203 90-203 203s90 203 203 203c113 0 203-90 203-203s-90-203-203-203z m63 636v-176c-20 6-43 10-63 10s-43-4-63-7v173c20 4 40 4 63 4 20 0 43 0 63-4z m-186-13v-170c0-7 0-10 3-13-50-27-90-67-113-114-4 4-10 4-14 4h-173c43 140 153 250 297 293z m-314-420c0 20 4 43 4 63h176c-6-20-10-43-10-63s4-43 7-63h-173c-4 20-4 43-4 63z m17-123h170c7 0 10 0 13 3 27-50 67-90 114-113-4-4-4-10-4-14v-170c-140 40-250 150-293 294z m357-310v173c20-3 40-7 63-7s43 4 63 7v-173c-20-4-40-4-63-4-20 0-43 0-63 4z m186 13v170c0 7 0 10-3 13 50 27 90 67 113 114 4-4 10-4 14-4h170c-40-140-150-250-294-293z" horiz-adv-x="1000" />
</font>
</defs>
</svg>
