<?xml version="1.0" encoding="utf-8"?>
<!-- Generator: Adobe Illustrator 19.2.0, SVG Export Plug-In . SVG Version: 6.00 Build 0)  -->
<svg version="1.1" id="Layer_1" xmlns="http://www.w3.org/2000/svg" xmlns:xlink="http://www.w3.org/1999/xlink" x="0px" y="0px"
	 viewBox="0 0 32 30" style="enable-background:new 0 0 32 30;" xml:space="preserve">
<path d="M28.8,9.3l-8.3-8.2c-1.5-1.5-3.9-1.5-5.3,0c-0.5,0.5-0.9,1.2-1,1.9C12.7,1.7,10.4,1.7,9,3.1C8.4,3.8,8,4.5,7.9,5.3
	C6.5,4.6,4.8,4.9,3.6,6c-1.3,1.3-1.4,3.3-0.5,4.7c-0.8,0.1-1.5,0.5-2,1c-1.5,1.5-1.5,3.8,0,5.3l2.7,2.6v2.9c0,4.1,3.4,7.4,7.5,7.4
	h8.2c2.4,0,4.7-0.9,6.5-2.6l2.9-2.9c2.1-2,3.2-4.7,3.2-7.6S30.9,11.3,28.8,9.3z M27.6,23.3l-2.9,2.9c-1.4,1.4-3.3,2.2-5.3,2.2h-8.2
	c-3.2,0-5.8-2.6-5.8-5.8v-1.3l1.9,1.9c0.3,0.3,0.9,0.3,1.2,0c0.2-0.2,0.2-0.4,0.2-0.6c0-0.2-0.1-0.4-0.2-0.6l-6.2-6.1
	c-0.4-0.4-0.6-0.9-0.6-1.5s0.2-1.1,0.6-1.5c0.8-0.8,2.2-0.8,3,0l2.1,2c0.3,0.3,0.9,0.3,1.2,0c0.2-0.2,0.2-0.4,0.2-0.6
	c0-0.2-0.1-0.4-0.2-0.6l-3.7-3.7C3.9,9.3,3.9,8,4.8,7.2c0.8-0.8,2.2-0.8,3,0l3.7,3.7c0.3,0.3,0.9,0.3,1.2,0c0.2-0.2,0.2-0.4,0.2-0.6
	c0-0.2-0.1-0.4-0.2-0.6l-2.5-2.4C9.8,6.9,9.6,6.3,9.6,5.8c0-0.6,0.2-1.1,0.6-1.5c0.8-0.8,2.2-0.8,3,0l2.5,2.4c0.3,0.3,0.9,0.3,1.2,0
	C17,6.6,17,6.4,17,6.2C17,6,17,5.8,16.8,5.6l-0.4-0.4c-0.8-0.8-0.8-2.1,0-2.9c0.8-0.8,2.2-0.8,3,0l8.3,8.2c1.7,1.7,2.7,4,2.7,6.4
	S29.4,21.6,27.6,23.3z"/>
</svg>
